<mxfile host="app.diagrams.net" modified="2022-03-05T03:43:14.134Z" agent="5.0 (Windows NT 10.0; Win64; x64) AppleWebKit/537.36 (KHTML, like Gecko) Chrome/98.0.4758.102 Safari/537.36 Edg/98.0.1108.62" etag="skN3g0a8S7rIiuOxulet" compressed="false" version="16.6.6" type="device">
  <diagram id="leg8R0Sc_TnhsgntIGAf" name="Page-1">
    <mxGraphModel dx="1085" dy="603" grid="1" gridSize="10" guides="1" tooltips="1" connect="1" arrows="1" fold="1" page="1" pageScale="1" pageWidth="827" pageHeight="1169" math="0" shadow="0">
      <root>
        <mxCell id="0" />
        <mxCell id="1" parent="0" />
        <mxCell id="dqKABztNdUeOiQ4xiMBX-2" value="Any Products" style="ellipse;whiteSpace=wrap;html=1;strokeWidth=1;" parent="1" vertex="1">
          <mxGeometry x="440" y="90" width="120" height="80" as="geometry" />
        </mxCell>
        <mxCell id="dqKABztNdUeOiQ4xiMBX-3" value="Enjoyment" style="ellipse;whiteSpace=wrap;html=1;strokeWidth=1;" parent="1" vertex="1">
          <mxGeometry x="210" y="90" width="120" height="80" as="geometry" />
        </mxCell>
        <mxCell id="dqKABztNdUeOiQ4xiMBX-9" value="Services Free" style="rounded=1;whiteSpace=wrap;html=1;strokeWidth=1;arcSize=27;fillColor=none;strokeColor=none;" parent="1" vertex="1">
          <mxGeometry x="310" y="30" width="130" height="30" as="geometry" />
        </mxCell>
        <mxCell id="dqKABztNdUeOiQ4xiMBX-13" value="&amp;lt;&amp;lt;include&amp;gt;&amp;gt;" style="endArrow=open;dashed=1;html=1;endFill=0;rounded=0;" parent="1" edge="1">
          <mxGeometry width="50" height="50" relative="1" as="geometry">
            <mxPoint x="330" y="130" as="sourcePoint" />
            <mxPoint x="440" y="130" as="targetPoint" />
          </mxGeometry>
        </mxCell>
        <mxCell id="dqKABztNdUeOiQ4xiMBX-14" value="join" style="line;strokeWidth=2;labelBackgroundColor=none;fillColor=none;rotation=90;strokeColor=default;fontColor=none;noLabel=1;" parent="1" vertex="1">
          <mxGeometry x="84.5" y="105.5" width="189" height="10" as="geometry" />
        </mxCell>
        <mxCell id="dqKABztNdUeOiQ4xiMBX-16" value="join" style="line;strokeWidth=2;labelBackgroundColor=none;fillColor=none;rotation=-180;strokeColor=default;fontColor=none;noLabel=1;" parent="1" vertex="1">
          <mxGeometry x="179" y="200" width="177" height="10" as="geometry" />
        </mxCell>
        <mxCell id="dqKABztNdUeOiQ4xiMBX-17" value="join" style="line;strokeWidth=2;labelBackgroundColor=none;fillColor=none;rotation=-180;strokeColor=default;fontColor=none;noLabel=1;" parent="1" vertex="1">
          <mxGeometry x="174" y="13" width="428" height="10" as="geometry" />
        </mxCell>
        <mxCell id="dqKABztNdUeOiQ4xiMBX-39" style="edgeStyle=orthogonalEdgeStyle;rounded=0;orthogonalLoop=1;jettySize=auto;html=1;fontColor=none;entryX=0.449;entryY=0.625;entryDx=0;entryDy=0;entryPerimeter=0;" parent="1" source="dqKABztNdUeOiQ4xiMBX-18" target="dqKABztNdUeOiQ4xiMBX-14" edge="1">
          <mxGeometry relative="1" as="geometry">
            <Array as="points">
              <mxPoint x="45" y="100" />
              <mxPoint x="50" y="100" />
            </Array>
          </mxGeometry>
        </mxCell>
        <mxCell id="dqKABztNdUeOiQ4xiMBX-18" value="Normal User" style="shape=umlActor;verticalLabelPosition=bottom;verticalAlign=top;html=1;outlineConnect=0;labelBackgroundColor=none;fontColor=none;strokeColor=default;strokeWidth=2;fillColor=none;" parent="1" vertex="1">
          <mxGeometry x="30" y="137.57999999999998" width="30" height="60" as="geometry" />
        </mxCell>
        <mxCell id="dqKABztNdUeOiQ4xiMBX-27" value="join" style="line;strokeWidth=2;labelBackgroundColor=none;fillColor=none;rotation=-180;strokeColor=default;fontColor=none;noLabel=1;" parent="1" vertex="1">
          <mxGeometry x="179.5" y="370" width="420" height="20" as="geometry" />
        </mxCell>
        <mxCell id="dqKABztNdUeOiQ4xiMBX-44" value="Website Owner" style="shape=umlActor;verticalLabelPosition=bottom;verticalAlign=top;html=1;outlineConnect=0;labelBackgroundColor=none;fontColor=none;strokeColor=default;strokeWidth=2;fillColor=none;" parent="1" vertex="1">
          <mxGeometry x="760" y="254.49" width="30" height="60" as="geometry" />
        </mxCell>
        <mxCell id="dqKABztNdUeOiQ4xiMBX-46" value="" style="line;strokeWidth=3;html=1;labelBackgroundColor=none;fontColor=none;fillColor=none;rotation=90;" parent="1" vertex="1">
          <mxGeometry x="419.15" y="197.58" width="362.69" height="4.97" as="geometry" />
        </mxCell>
        <mxCell id="053umU8wN3l7JuZuDaAj-1" value="PRO features" style="ellipse;whiteSpace=wrap;html=1;strokeWidth=1;" vertex="1" parent="1">
          <mxGeometry x="315" y="282.51" width="120" height="80" as="geometry" />
        </mxCell>
        <mxCell id="053umU8wN3l7JuZuDaAj-2" value="Services Plan" style="rounded=1;whiteSpace=wrap;html=1;strokeWidth=1;arcSize=27;fillColor=none;strokeColor=none;fontColor=#FF0000;" vertex="1" parent="1">
          <mxGeometry x="310" y="242.49" width="130" height="30" as="geometry" />
        </mxCell>
        <mxCell id="053umU8wN3l7JuZuDaAj-3" value="join" style="line;strokeWidth=2;labelBackgroundColor=none;fillColor=none;rotation=-180;strokeColor=default;fontColor=none;noLabel=1;" vertex="1" parent="1">
          <mxGeometry x="408" y="200" width="191" height="10" as="geometry" />
        </mxCell>
        <mxCell id="053umU8wN3l7JuZuDaAj-4" value="" style="html=1;shape=mxgraph.sysml.flowFinal;strokeWidth=2;verticalLabelPosition=bottom;verticalAlignment=top;fontColor=#FF0000;" vertex="1" parent="1">
          <mxGeometry x="365" y="185" width="40" height="40" as="geometry" />
        </mxCell>
        <mxCell id="053umU8wN3l7JuZuDaAj-7" value="" style="line;strokeWidth=3;html=1;labelBackgroundColor=none;fontColor=none;fillColor=none;rotation=90;" vertex="1" parent="1">
          <mxGeometry x="92.5" y="289.5" width="175" height="4.97" as="geometry" />
        </mxCell>
        <mxCell id="053umU8wN3l7JuZuDaAj-28" style="edgeStyle=orthogonalEdgeStyle;rounded=0;orthogonalLoop=1;jettySize=auto;html=1;entryX=0.825;entryY=0.515;entryDx=0;entryDy=0;entryPerimeter=0;fontColor=#FF0000;" edge="1" parent="1" source="053umU8wN3l7JuZuDaAj-8">
          <mxGeometry relative="1" as="geometry">
            <mxPoint x="177.8499999999999" y="554.9250000000002" as="targetPoint" />
          </mxGeometry>
        </mxCell>
        <mxCell id="053umU8wN3l7JuZuDaAj-8" value="Bought Plan" style="shape=umlActor;verticalLabelPosition=bottom;verticalAlign=top;html=1;outlineConnect=0;labelBackgroundColor=none;fontColor=none;strokeColor=default;strokeWidth=2;fillColor=none;" vertex="1" parent="1">
          <mxGeometry x="30" y="525" width="30" height="60" as="geometry" />
        </mxCell>
        <mxCell id="053umU8wN3l7JuZuDaAj-12" value="Any Products" style="ellipse;whiteSpace=wrap;html=1;strokeWidth=1;" vertex="1" parent="1">
          <mxGeometry x="440" y="473" width="120" height="80" as="geometry" />
        </mxCell>
        <mxCell id="053umU8wN3l7JuZuDaAj-13" value="Enjoyment" style="ellipse;whiteSpace=wrap;html=1;strokeWidth=1;" vertex="1" parent="1">
          <mxGeometry x="210" y="473" width="120" height="80" as="geometry" />
        </mxCell>
        <mxCell id="053umU8wN3l7JuZuDaAj-14" value="Services Free" style="rounded=1;whiteSpace=wrap;html=1;strokeWidth=1;arcSize=27;fillColor=none;strokeColor=none;" vertex="1" parent="1">
          <mxGeometry x="310" y="413" width="130" height="30" as="geometry" />
        </mxCell>
        <mxCell id="053umU8wN3l7JuZuDaAj-15" value="&amp;lt;&amp;lt;include&amp;gt;&amp;gt;" style="endArrow=open;dashed=1;html=1;endFill=0;rounded=0;" edge="1" parent="1">
          <mxGeometry width="50" height="50" relative="1" as="geometry">
            <mxPoint x="330" y="513" as="sourcePoint" />
            <mxPoint x="440" y="513" as="targetPoint" />
          </mxGeometry>
        </mxCell>
        <mxCell id="053umU8wN3l7JuZuDaAj-18" value="join" style="line;strokeWidth=2;labelBackgroundColor=none;fillColor=none;rotation=-180;strokeColor=default;fontColor=none;noLabel=1;" vertex="1" parent="1">
          <mxGeometry x="178" y="396" width="424" height="10" as="geometry" />
        </mxCell>
        <mxCell id="053umU8wN3l7JuZuDaAj-19" value="join" style="line;strokeWidth=2;labelBackgroundColor=none;fillColor=none;rotation=-180;strokeColor=default;fontColor=none;noLabel=1;" vertex="1" parent="1">
          <mxGeometry x="179.5" y="753" width="420" height="20" as="geometry" />
        </mxCell>
        <mxCell id="053umU8wN3l7JuZuDaAj-20" value="" style="line;strokeWidth=3;html=1;labelBackgroundColor=none;fontColor=none;fillColor=none;rotation=90;" vertex="1" parent="1">
          <mxGeometry x="419.15" y="580.58" width="362.69" height="4.97" as="geometry" />
        </mxCell>
        <mxCell id="053umU8wN3l7JuZuDaAj-21" value="PRO features" style="ellipse;whiteSpace=wrap;html=1;strokeWidth=1;" vertex="1" parent="1">
          <mxGeometry x="315" y="665.51" width="120" height="80" as="geometry" />
        </mxCell>
        <mxCell id="053umU8wN3l7JuZuDaAj-22" value="Services Plan" style="rounded=1;whiteSpace=wrap;html=1;strokeWidth=1;arcSize=27;fillColor=none;strokeColor=none;fontColor=#FF0000;" vertex="1" parent="1">
          <mxGeometry x="310" y="625.49" width="130" height="30" as="geometry" />
        </mxCell>
        <mxCell id="053umU8wN3l7JuZuDaAj-25" value="" style="line;strokeWidth=3;html=1;labelBackgroundColor=none;fontColor=none;fillColor=none;rotation=90;" vertex="1" parent="1">
          <mxGeometry x="-2.31" y="578.68" width="362.62" height="4.97" as="geometry" />
        </mxCell>
        <mxCell id="053umU8wN3l7JuZuDaAj-29" value="&amp;lt;&amp;lt;include&amp;gt;&amp;gt;" style="endArrow=open;dashed=1;html=1;endFill=0;rounded=0;entryX=0.5;entryY=0;entryDx=0;entryDy=0;" edge="1" parent="1" target="053umU8wN3l7JuZuDaAj-22">
          <mxGeometry width="50" height="50" relative="1" as="geometry">
            <mxPoint x="380" y="520" as="sourcePoint" />
            <mxPoint x="450" y="523" as="targetPoint" />
            <Array as="points">
              <mxPoint x="375" y="530" />
            </Array>
          </mxGeometry>
        </mxCell>
        <mxCell id="053umU8wN3l7JuZuDaAj-30" value="" style="endArrow=block;endSize=16;endFill=0;html=1;rounded=0;fontColor=#FF0000;entryX=0.5;entryY=0.5;entryDx=0;entryDy=0;entryPerimeter=0;exitX=1;exitY=0.5;exitDx=0;exitDy=0;" edge="1" parent="1" source="053umU8wN3l7JuZuDaAj-31" target="dqKABztNdUeOiQ4xiMBX-44">
          <mxGeometry width="160" relative="1" as="geometry">
            <mxPoint x="480" y="600" as="sourcePoint" />
            <mxPoint x="770" y="510" as="targetPoint" />
            <Array as="points">
              <mxPoint x="700" y="590" />
              <mxPoint x="700" y="310" />
            </Array>
          </mxGeometry>
        </mxCell>
        <mxCell id="053umU8wN3l7JuZuDaAj-31" value="Services Fee" style="ellipse;whiteSpace=wrap;html=1;strokeWidth=1;" vertex="1" parent="1">
          <mxGeometry x="419.15" y="570" width="120" height="80" as="geometry" />
        </mxCell>
      </root>
    </mxGraphModel>
  </diagram>
</mxfile>
